<?xml version="1.0" standalone="no"?>
<!DOCTYPE svg PUBLIC "-//W3C//DTD SVG 20010904//EN"
 "http://www.w3.org/TR/2001/REC-SVG-20010904/DTD/svg10.dtd">
<svg version="1.0" xmlns="http://www.w3.org/2000/svg"
 width="848.000000pt" height="848.000000pt" viewBox="0 0 848.000000 848.000000"
 preserveAspectRatio="xMidYMid meet">
<metadata>
Created by potrace 1.11, written by Peter Selinger 2001-2013
</metadata>
<g transform="translate(0.000000,848.000000) scale(0.100000,-0.100000)"
fill="#000000" stroke="none">
<path d="M4207 8474 c-1 -1 -50 -5 -109 -8 -59 -4 -117 -9 -130 -11 -13 -2
-48 -6 -78 -10 -30 -3 -66 -7 -80 -9 -14 -3 -43 -7 -65 -11 -22 -3 -118 -21
-214 -41 -496 -101 -1041 -313 -1470 -571 -77 -47 -352 -231 -361 -242 -3 -4
-25 -22 -50 -41 -174 -131 -440 -386 -587 -560 -161 -192 -315 -411 -438 -625
-52 -91 -195 -368 -195 -379 0 -3 -16 -39 -35 -80 -19 -42 -35 -79 -35 -82 0
-3 -9 -24 -19 -47 -80 -178 -199 -605 -237 -851 -3 -21 -7 -46 -9 -55 -2 -9
-6 -44 -10 -76 -4 -33 -9 -71 -11 -85 -24 -153 -24 -700 0 -825 2 -11 7 -50
10 -87 4 -37 9 -80 12 -95 24 -142 47 -265 56 -298 5 -22 12 -51 14 -65 3 -14
16 -68 30 -120 251 -944 744 -1738 1409 -2268 44 -35 89 -71 101 -80 25 -21
55 -42 174 -123 422 -288 978 -529 1455 -630 33 -7 65 -14 70 -15 38 -9 242
-42 295 -48 42 -4 98 -10 225 -21 152 -14 575 -2 725 20 14 2 48 6 75 10 28 3
57 8 65 10 8 2 35 6 60 9 25 3 56 8 70 11 14 3 41 8 60 11 19 3 108 24 197 45
705 171 1400 507 1883 908 507 423 863 923 1101 1549 54 141 129 393 153 512
3 14 8 36 11 50 3 14 8 36 10 50 2 14 6 36 9 50 11 48 15 75 21 115 3 23 7 50
9 60 6 31 23 169 32 260 8 83 17 316 17 440 0 132 -11 430 -18 464 -1 9 -6 48
-9 86 -11 115 -17 169 -21 195 -3 14 -7 45 -10 70 -3 25 -8 57 -10 71 -3 14
-7 41 -9 60 -6 45 -16 100 -21 119 -2 8 -7 35 -10 59 -8 58 -44 223 -49 229
-3 2 -49 -10 -103 -28 -185 -59 -1167 -378 -1388 -450 -82 -27 -271 -88 -420
-136 -431 -139 -460 -149 -456 -165 11 -44 40 -180 45 -214 4 -23 8 -50 10
-60 2 -11 7 -49 11 -85 23 -202 22 -407 -1 -550 -3 -19 -8 -47 -9 -62 -23
-178 -122 -426 -242 -607 -81 -121 -270 -308 -401 -395 -219 -145 -521 -269
-752 -310 -19 -3 -46 -8 -60 -11 -115 -23 -386 -23 -496 -1 -12 2 -37 7 -57
10 -114 18 -285 78 -431 152 -437 221 -746 603 -916 1132 -18 53 -33 104 -35
112 -2 8 -10 44 -19 80 -16 69 -20 89 -40 225 -17 121 -13 393 9 510 70 377
224 683 469 928 167 169 353 290 588 385 389 156 762 178 1106 66 130 -43 351
-158 442 -231 8 -6 44 -35 80 -63 91 -71 247 -228 341 -341 l80 -97 102 45
c56 25 120 53 143 63 22 11 63 28 91 39 28 11 72 30 99 42 27 12 63 27 79 34
17 7 64 27 105 45 41 17 89 38 105 45 17 7 80 34 140 60 61 25 124 52 140 60
17 7 320 138 675 290 355 152 650 280 657 283 7 5 -8 37 -48 96 -32 49 -59 90
-59 92 0 4 -119 170 -179 249 -69 92 -240 305 -286 355 -119 133 -197 212
-327 335 -108 102 -143 133 -238 208 -47 38 -94 76 -105 85 -46 37 -297 203
-386 254 -183 105 -482 241 -674 306 -108 37 -259 82 -289 88 -16 3 -32 7 -36
9 -7 4 -160 39 -214 49 -16 3 -52 10 -80 15 -57 11 -77 14 -251 36 -106 13
-566 29 -578 19z"/>
<path d="M4205 5009 c-95 -16 -121 -22 -137 -30 -10 -5 -18 -7 -18 -4 0 8
-111 -44 -182 -86 -37 -22 -96 -69 -130 -104 -35 -36 -68 -65 -74 -65 -7 0
-19 11 -28 25 -36 56 -101 57 -135 2 -23 -37 -40 -148 -34 -216 11 -113 6
-278 -10 -336 -21 -78 -26 -105 -33 -190 -21 -239 -1 -335 86 -422 35 -35 46
-41 78 -38 21 1 48 8 59 16 49 30 67 127 49 264 -4 32 -9 62 -11 66 -3 3 -7
38 -11 77 -5 58 -3 73 8 77 20 8 232 -47 371 -95 156 -54 371 -103 625 -145
73 -12 89 -14 127 -19 108 -14 144 -16 187 -11 62 9 74 20 98 89 17 46 19 64
10 90 -21 64 -90 81 -153 37 -39 -26 -48 -28 -122 -26 -78 3 -109 6 -230 25
-60 10 -88 15 -135 25 -14 3 -34 7 -45 9 -206 40 -585 179 -593 216 -2 11 45
43 151 103 331 186 502 316 564 428 44 80 10 175 -80 221 -32 16 -61 22 -127
23 -47 0 -103 -2 -125 -6z m92 -192 c14 -14 -106 -120 -242 -213 -110 -76
-329 -194 -359 -194 -13 0 -4 27 31 99 70 140 230 263 400 306 57 14 156 15
170 2z"/>
</g>
</svg>
